# Blender 3.6.4
# www.blender.org
mtllib Satellite_Dish.mtl
o satellite_sep2.001
v -0.028815 -0.132073 -0.029776
v -0.038246 -0.094465 0.003413
v 0.066296 -0.071293 0.006862
v 0.075727 -0.108900 -0.026327
v -0.041342 -0.063453 -0.111091
v -0.050773 -0.025846 -0.077903
v 0.053768 -0.002673 -0.074454
v 0.063199 -0.040280 -0.107642
v 0.074414 -0.108742 -0.096567
v 0.072935 -0.121836 -0.082150
v 0.064246 -0.134585 -0.070172
v 0.049667 -0.145048 -0.062459
v 0.031420 -0.151632 -0.060184
v 0.012281 -0.153335 -0.063692
v -0.004835 -0.149897 -0.072452
v -0.017323 -0.141843 -0.085127
v -0.023281 -0.130397 -0.099790
v -0.021803 -0.117303 -0.114207
v -0.013113 -0.104554 -0.126185
v 0.001465 -0.094091 -0.133898
v 0.019713 -0.087507 -0.136173
v 0.038851 -0.085804 -0.132665
v 0.055968 -0.089242 -0.123905
v 0.068455 -0.097296 -0.111230
v 0.006813 -0.044789 -0.032185
v 0.076869 -0.118534 -0.105208
v 0.075391 -0.131628 -0.090791
v 0.066701 -0.144377 -0.078814
v 0.052123 -0.154840 -0.071100
v 0.033876 -0.161424 -0.068825
v 0.014737 -0.163127 -0.072334
v -0.002379 -0.159689 -0.081093
v -0.014867 -0.151635 -0.093769
v -0.020825 -0.140189 -0.108432
v -0.019347 -0.127095 -0.122849
v -0.010657 -0.114346 -0.134826
v 0.003921 -0.103883 -0.142539
v 0.022168 -0.097299 -0.144815
v 0.041307 -0.095596 -0.141306
v 0.058423 -0.099034 -0.132547
v 0.070911 -0.107088 -0.119871
v 0.070017 -0.110539 -0.097406
v 0.068678 -0.122402 -0.084344
v 0.060805 -0.133953 -0.073493
v 0.047597 -0.143432 -0.066505
v 0.031065 -0.149398 -0.064443
v 0.013726 -0.150940 -0.067622
v -0.001781 -0.147826 -0.075558
v -0.013095 -0.140528 -0.087042
v -0.018494 -0.130159 -0.100326
v -0.017154 -0.118296 -0.113389
v -0.009281 -0.106745 -0.124240
v 0.003926 -0.097266 -0.131228
v 0.020459 -0.091300 -0.133290
v 0.037798 -0.089758 -0.130111
v 0.053305 -0.092872 -0.122175
v 0.064619 -0.100170 -0.110691
v 0.008772 -0.052598 -0.039076
v 0.072277 -0.119552 -0.105360
v 0.070938 -0.131415 -0.092298
v 0.063065 -0.142965 -0.081447
v 0.049857 -0.152445 -0.074458
v 0.033325 -0.158410 -0.072397
v 0.015986 -0.159953 -0.075576
v 0.000479 -0.156839 -0.083511
v -0.010835 -0.149541 -0.094996
v -0.016233 -0.139171 -0.108280
v -0.014894 -0.127308 -0.121342
v -0.007021 -0.115758 -0.132193
v 0.006187 -0.106278 -0.139182
v 0.022719 -0.100313 -0.141243
v 0.040058 -0.098770 -0.138064
v 0.055565 -0.101885 -0.130128
v 0.066879 -0.109182 -0.118644
v 0.118824 0.048767 0.029508
v 0.114940 0.014365 0.067387
v 0.092109 -0.019131 0.098855
v 0.053807 -0.046621 0.119121
v 0.005865 -0.063920 0.125099
v -0.044419 -0.068394 0.115880
v -0.089389 -0.059363 0.092867
v -0.122199 -0.038200 0.059563
v -0.137853 -0.008129 0.021039
v -0.133969 0.026274 -0.016840
v -0.111138 0.059770 -0.048308
v -0.072836 0.087260 -0.068574
v -0.024894 0.104559 -0.074552
v 0.025390 0.109033 -0.065333
v 0.070360 0.100001 -0.042320
v 0.103169 0.078839 -0.009016
v 0.067392 0.006005 0.001345
v 0.065291 -0.012614 0.021846
v 0.052935 -0.030742 0.038876
v 0.032206 -0.045619 0.049844
v 0.006259 -0.054981 0.053079
v -0.020954 -0.057403 0.048090
v -0.045292 -0.052515 0.035635
v -0.063048 -0.041062 0.017611
v -0.071520 -0.024787 -0.003238
v -0.069418 -0.006168 -0.023738
v -0.057062 0.011959 -0.040768
v -0.036333 0.026837 -0.051736
v -0.010387 0.036199 -0.054971
v 0.016826 0.038620 -0.049982
v 0.041164 0.033732 -0.037527
v 0.058920 0.022279 -0.019504
v 0.000552 -0.019824 -0.010153
v 0.115884 0.050848 0.031717
v 0.112069 0.017060 0.068920
v 0.089646 -0.015838 0.099826
v 0.052027 -0.042837 0.119730
v 0.004941 -0.059827 0.125602
v -0.044445 -0.064222 0.116548
v -0.088612 -0.055351 0.093945
v -0.120836 -0.034566 0.061236
v -0.136211 -0.005032 0.023400
v -0.132397 0.028757 -0.013803
v -0.109974 0.061655 -0.044710
v -0.072355 0.088654 -0.064614
v -0.025269 0.105644 -0.070485
v 0.024118 0.110038 -0.061431
v 0.068285 0.101168 -0.038829
v 0.100509 0.080383 -0.006119
v 0.065006 0.008547 0.003858
v 0.062955 -0.009628 0.023870
v 0.050893 -0.027323 0.040494
v 0.030659 -0.041846 0.051200
v 0.005331 -0.050985 0.054358
v -0.021233 -0.053348 0.049488
v -0.044990 -0.048577 0.037330
v -0.062323 -0.037397 0.019736
v -0.070593 -0.021510 -0.000615
v -0.068542 -0.003336 -0.020627
v -0.056480 0.014360 -0.037251
v -0.036246 0.028882 -0.047957
v -0.010918 0.038021 -0.051115
v 0.015646 0.040385 -0.046245
v 0.039403 0.035613 -0.034087
v 0.056736 0.024433 -0.016493
v -0.000240 -0.016666 -0.007366
v -0.069921 -0.132884 0.026561
v -0.079352 -0.095277 0.059749
v 0.100273 -0.055461 0.065675
v 0.109704 -0.093068 0.032487
v -0.091446 -0.014981 -0.113157
v -0.100877 0.022626 -0.079969
v 0.078748 0.062442 -0.074042
v 0.088179 0.024835 -0.107231
v -0.017657 0.098907 0.092845
v -0.017988 0.095970 0.096079
v -0.019937 0.093110 0.098766
v -0.023208 0.090763 0.100496
v -0.027301 0.089287 0.101007
v -0.031594 0.088905 0.100220
v -0.035433 0.089676 0.098255
v -0.038234 0.091482 0.095411
v -0.039571 0.094050 0.092122
v -0.039239 0.096987 0.088889
v -0.037290 0.099847 0.086202
v -0.034020 0.102194 0.084472
v -0.029927 0.103671 0.083961
v -0.025634 0.104053 0.084748
v -0.021794 0.103281 0.086713
v -0.018993 0.101475 0.089556
v -0.012262 0.077396 0.073862
v -0.012594 0.074459 0.077096
v -0.014543 0.071599 0.079782
v -0.017813 0.069252 0.081512
v -0.021906 0.067775 0.082023
v -0.026199 0.067393 0.081236
v -0.030038 0.068164 0.079271
v -0.032839 0.069971 0.076428
v -0.034176 0.072538 0.073139
v -0.033844 0.075475 0.069905
v -0.031895 0.078335 0.067218
v -0.028625 0.080682 0.065488
v -0.024532 0.082159 0.064977
v -0.020239 0.082541 0.065764
v -0.016400 0.081770 0.067729
v -0.013599 0.079963 0.070573
v -0.021575 0.091378 0.087095
v -0.021740 0.089915 0.088706
v -0.022710 0.088491 0.090044
v -0.024339 0.087322 0.090905
v -0.026377 0.086587 0.091160
v -0.028515 0.086397 0.090768
v -0.030427 0.086781 0.089789
v -0.031822 0.087680 0.088373
v -0.032488 0.088959 0.086735
v -0.032323 0.090422 0.085125
v -0.031352 0.091846 0.083787
v -0.029723 0.093015 0.082925
v -0.027685 0.093750 0.082671
v -0.025547 0.093940 0.083063
v -0.023635 0.093556 0.084041
v -0.022240 0.092657 0.085457
v 0.005671 -0.017266 -0.008783
v 0.005506 -0.018729 -0.007173
v 0.004535 -0.020153 -0.005835
v 0.002907 -0.021322 -0.004973
v 0.000868 -0.022057 -0.004719
v -0.001270 -0.022248 -0.005111
v -0.003182 -0.021864 -0.006089
v -0.004577 -0.020964 -0.007505
v -0.005242 -0.019685 -0.009143
v -0.005077 -0.018222 -0.010754
v -0.004106 -0.016798 -0.012092
v -0.002478 -0.015630 -0.012953
v -0.000440 -0.014894 -0.013208
v 0.001698 -0.014704 -0.012816
v 0.003610 -0.015088 -0.011837
v 0.005005 -0.015988 -0.010421
vn -0.3892 -0.9201 0.0442
vn 0.7376 -0.6703 0.0814
vn 0.5242 0.1805 0.8323
vn -0.6026 -0.0693 0.7950
vn -0.3892 -0.9201 0.0441
vn -0.5242 -0.1806 -0.8322
vn 0.6026 0.0692 -0.7950
vn 0.7375 -0.6704 0.0814
vn -0.6026 -0.0692 0.7951
vn -0.7376 0.6703 -0.0814
vn 0.5242 0.1806 0.8322
vn 0.3891 0.9201 -0.0442
vn -0.7376 0.6703 -0.0813
vn -0.6025 -0.0693 0.7951
vn 0.7376 -0.6703 0.0813
vn 0.6025 0.0693 -0.7951
vn 0.3892 0.9201 -0.0441
vn 0.5242 0.1805 0.8322
vn -0.7375 0.6704 -0.0813
vn 0.3892 0.9201 -0.0442
vn 0.6026 0.0693 -0.7950
vn -0.5242 -0.1805 -0.8322
vn 0.9082 0.3783 0.1793
vn -0.1848 0.7369 0.6502
vn 0.8794 0.1236 0.4598
vn 0.9081 0.3783 0.1793
vn 0.8152 -0.3746 -0.4417
vn 0.7319 -0.2145 -0.6468
vn 0.7922 0.6010 -0.1059
vn -0.1848 0.7368 0.6503
vn 0.7104 -0.1244 0.6927
vn 0.7945 -0.5578 -0.2400
vn 0.4268 -0.3280 0.8428
vn 0.7104 -0.1244 0.6928
vn 0.6730 -0.7361 -0.0725
vn -0.1847 0.7369 0.6503
vn 0.0718 -0.4560 0.8871
vn 0.4268 -0.3279 0.8428
vn 0.4691 -0.8825 0.0354
vn 0.7103 -0.1244 0.6928
vn -0.3005 -0.4892 0.8188
vn 0.2138 -0.9746 0.0672
vn -0.1847 0.7368 0.6503
vn -0.6334 -0.4223 0.6484
vn -0.3005 -0.4891 0.8188
vn -0.0539 -0.9984 0.0181
vn -0.1848 0.7368 0.6504
vn -0.8763 -0.2656 0.4018
vn -0.2933 -0.9503 -0.1044
vn -0.9922 -0.0430 0.1166
vn -0.8763 -0.2656 0.4019
vn -0.4680 -0.8376 -0.2817
vn -0.9635 0.2118 -0.1638
vn -0.9922 -0.0429 0.1166
vn -0.5514 -0.6775 -0.4868
vn -0.9635 0.2117 -0.1638
vn -0.7945 0.4598 -0.3968
vn -0.5307 -0.4944 -0.6885
vn -0.7945 0.4597 -0.3968
vn -0.1849 0.7368 0.6503
vn -0.5109 0.6633 -0.5469
vn -0.4091 -0.3160 -0.8560
vn -0.1849 0.7369 0.6503
vn -0.1559 0.7914 -0.5911
vn -0.5109 0.6633 -0.5468
vn -0.2052 -0.1697 -0.9639
vn 0.2164 0.8245 -0.5229
vn 0.0500 -0.0776 -0.9957
vn -0.1849 0.7369 0.6502
vn 0.5493 0.7576 -0.3525
vn 0.3178 -0.0537 -0.9466
vn 0.7923 0.6009 -0.1059
vn 0.5572 -0.1018 -0.8241
vn 0.2164 0.8245 -0.5228
vn 0.8152 -0.3745 -0.4419
vn -0.5513 -0.6776 -0.4868
vn 0.7945 -0.5578 -0.2401
vn -0.5307 -0.4944 -0.6884
vn -0.5513 -0.6777 -0.4866
vn -0.4091 -0.3161 -0.8560
vn -0.5306 -0.4943 -0.6885
vn 0.4693 -0.8823 0.0353
vn 0.4690 -0.8825 0.0354
vn 0.3177 -0.0538 -0.9467
vn 0.0501 -0.0776 -0.9957
vn 0.5571 -0.1018 -0.8241
vn 0.3178 -0.0538 -0.9466
vn 0.7318 -0.2145 -0.6469
vn 0.5572 -0.1019 -0.8241
vn -0.5513 -0.6775 -0.4868
vn 0.8152 -0.3746 -0.4418
vn 0.8152 -0.3747 -0.4417
vn 0.4691 -0.8824 0.0354
vn 0.6729 -0.7361 -0.0725
vn 0.2135 -0.9746 0.0672
vn 0.7318 -0.2145 -0.6468
vn -0.4680 -0.8377 -0.2817
vn -0.9082 -0.3783 -0.1793
vn 0.1848 -0.7369 -0.6503
vn -0.7922 -0.6009 0.1059
vn -0.9081 -0.3783 -0.1793
vn -0.8794 -0.1236 -0.4598
vn -0.5307 -0.4943 -0.6885
vn -0.7104 0.1244 -0.6928
vn -0.4268 0.3279 -0.8428
vn -0.4268 0.3280 -0.8428
vn -0.7104 0.1244 -0.6927
vn -0.0718 0.4560 -0.8871
vn 0.3005 0.4891 -0.8188
vn 0.3005 0.4892 -0.8188
vn 0.6334 0.4223 -0.6484
vn 0.8763 0.2656 -0.4019
vn 0.8763 0.2656 -0.4018
vn 0.9922 0.0429 -0.1166
vn 0.9922 0.0430 -0.1166
vn 0.9635 -0.2118 0.1638
vn 0.7945 -0.4598 0.3968
vn 0.9635 -0.2117 0.1638
vn 0.5109 -0.6633 0.5469
vn 0.7945 -0.4597 0.3968
vn 0.1559 -0.7914 0.5911
vn -0.2164 -0.8245 0.5229
vn -0.5493 -0.7576 0.3525
vn -0.7923 -0.6009 0.1059
vn -0.7922 -0.6010 0.1059
vn 0.9931 0.0656 -0.0977
vn 0.5437 -0.5983 -0.5886
vn 0.4982 -0.5109 -0.7006
vn 0.8764 0.2896 -0.3847
vn 0.0054 0.7647 0.6444
vn -0.0002 0.7146 0.6996
vn 0.9641 -0.1908 0.1846
vn 0.5324 -0.6982 -0.4786
vn 0.9931 0.0655 -0.0977
vn -0.0002 0.7146 0.6995
vn -0.0335 0.6658 0.7454
vn 0.7940 -0.4404 0.4191
vn 0.4661 -0.7956 -0.3871
vn 0.5324 -0.6982 -0.4785
vn 0.7940 -0.4404 0.4190
vn -0.0334 0.6658 0.7454
vn -0.0892 0.6258 0.7749
vn 0.5086 -0.6453 0.5701
vn 0.5086 -0.6452 0.5701
vn 0.3548 -0.8754 -0.3282
vn -0.1590 0.6006 0.7836
vn 0.1513 -0.7742 0.6146
vn 0.2155 -0.9257 -0.3108
vn 0.3548 -0.8755 -0.3282
vn 0.1514 -0.7742 0.6146
vn -0.2322 0.5941 0.7701
vn -0.2234 -0.8075 0.5459
vn 0.0693 -0.9387 -0.3376
vn 0.2154 -0.9257 -0.3108
vn -0.2233 -0.8075 0.5459
vn -0.2976 0.6073 0.7366
vn -0.5585 -0.7402 0.3744
vn -0.5585 -0.7402 0.3745
vn -0.0613 -0.9125 -0.4045
vn -0.5584 -0.7402 0.3745
vn -0.2976 0.6073 0.7367
vn -0.3454 0.6381 0.6882
vn -0.8030 -0.5825 0.1263
vn -0.1567 -0.8510 -0.5013
vn -0.8029 -0.5825 0.1263
vn -0.3682 0.6818 0.6321
vn -0.9196 -0.3584 -0.1608
vn -0.2022 -0.7636 -0.6132
vn -0.3625 0.7319 0.5770
vn -0.8907 -0.1021 -0.4431
vn -0.8907 -0.1021 -0.4430
vn -0.1909 -0.6636 -0.7233
vn -0.3293 0.7807 0.5312
vn -0.7205 0.1475 -0.6776
vn -0.7206 0.1475 -0.6775
vn -0.1245 -0.5663 -0.8147
vn -0.2735 0.8207 0.5017
vn -0.4351 0.3524 -0.8286
vn -0.4351 0.3524 -0.8285
vn -0.0132 -0.4864 -0.8736
vn -0.7205 0.1475 -0.6775
vn -0.2736 0.8207 0.5017
vn -0.2037 0.8459 0.4930
vn -0.0778 0.4813 -0.8731
vn -0.0779 0.4813 -0.8731
vn 0.1261 -0.4361 -0.8910
vn -0.2038 0.8459 0.4930
vn -0.1306 0.8524 0.5064
vn 0.2968 0.5146 -0.8044
vn 0.2722 -0.4231 -0.8642
vn -0.0651 0.8392 0.5399
vn 0.6319 0.4473 -0.6329
vn 0.4029 -0.4494 -0.7973
vn -0.0174 0.8084 0.5884
vn 0.8764 0.2896 -0.3848
vn -0.0174 0.8084 0.5883
vn 0.0054 0.7646 0.6444
vn -0.0614 -0.9125 -0.4045
vn -0.1246 -0.5663 -0.8147
vn -0.0133 -0.4864 -0.8736
vn 0.0055 0.7647 0.6444
vn -0.5437 0.5983 0.5886
vn -0.5324 0.6982 0.4785
vn -0.0002 0.7145 0.6996
vn -0.4661 0.7956 0.3871
vn -0.3548 0.8755 0.3282
vn -0.3548 0.8754 0.3282
vn -0.2154 0.9257 0.3108
vn -0.1589 0.6006 0.7836
vn -0.2155 0.9257 0.3108
vn -0.0693 0.9387 0.3376
vn -0.2321 0.5941 0.7702
vn 0.0614 0.9125 0.4045
vn -0.2977 0.6073 0.7366
vn -0.2976 0.6072 0.7367
vn 0.0613 0.9125 0.4045
vn 0.1567 0.8510 0.5013
vn -0.3454 0.6381 0.6881
vn -0.3454 0.6380 0.6882
vn 0.2022 0.7636 0.6132
vn 0.1909 0.6636 0.7233
vn -0.3625 0.7319 0.5769
vn -0.3626 0.7319 0.5770
vn 0.1245 0.5663 0.8147
vn -0.3293 0.7807 0.5311
vn -0.3293 0.7806 0.5312
vn 0.1246 0.5663 0.8147
vn 0.0132 0.4864 0.8736
vn -0.2735 0.8207 0.5016
vn -0.2736 0.8207 0.5016
vn 0.0133 0.4864 0.8736
vn -0.1261 0.4361 0.8910
vn -0.2037 0.8459 0.4929
vn -0.2038 0.8459 0.4929
vn -0.2722 0.4231 0.8642
vn -0.1305 0.8524 0.5064
vn -0.1306 0.8524 0.5063
vn -0.4029 0.4494 0.7973
vn -0.0651 0.8392 0.5398
vn -0.4982 0.5109 0.7006
vn -0.0173 0.8084 0.5884
vn 0.0055 0.7646 0.6444
vn -0.1848 0.7369 0.6503
vn -0.5242 -0.1805 -0.8323
vn 0.6025 0.0692 -0.7951
vn 0.7854 0.5274 0.3240
vn 0.6793 0.7311 0.0631
vn 0.4571 0.8744 -0.1625
vn 0.1525 0.9356 -0.3184
vn -0.1881 0.9053 -0.3808
vn -0.5129 0.7881 -0.3403
vn -0.7723 0.6019 -0.2030
vn -0.9270 0.3750 0.0101
vn -0.9533 0.1420 0.2666
vn -0.8473 -0.0617 0.5276
vn -0.6250 -0.2050 0.7532
vn -0.3204 -0.2662 0.9091
vn 0.0203 -0.2359 0.9716
vn 0.3450 -0.1187 0.9310
vn 0.6045 0.0675 0.7938
vn 0.7591 0.2943 0.5807
vn 0.9533 -0.1420 -0.2667
vn 0.8472 0.0617 -0.5276
vn 0.6794 0.7311 0.0631
vn 0.7591 0.2943 0.5806
vn 0.9270 -0.3750 -0.0101
vn 0.6044 0.0674 0.7938
vn 0.7723 -0.6019 0.2031
vn 0.3450 -0.1188 0.9311
vn 0.5128 -0.7881 0.3404
vn 0.6045 0.0674 0.7938
vn 0.0202 -0.2360 0.9716
vn 0.1881 -0.9053 0.3809
vn 0.5129 -0.7881 0.3404
vn -0.3204 -0.2663 0.9091
vn -0.1525 -0.9356 0.3184
vn 0.0203 -0.2360 0.9716
vn -0.6250 -0.2051 0.7532
vn -0.4571 -0.8744 0.1625
vn -0.3203 -0.2663 0.9091
vn -0.8472 -0.0617 0.5276
vn -0.6794 -0.7311 -0.0631
vn -0.9533 0.1420 0.2667
vn -0.7854 -0.5274 -0.3240
vn -0.7591 -0.2943 -0.5806
vn -0.7723 0.6019 -0.2031
vn -0.6044 -0.0674 -0.7938
vn -0.5128 0.7881 -0.3404
vn -0.3450 0.1188 -0.9311
vn -0.6045 -0.0675 -0.7938
vn -0.1881 0.9053 -0.3809
vn -0.0202 0.2360 -0.9716
vn -0.5129 0.7881 -0.3404
vn 0.3204 0.2663 -0.9091
vn -0.0203 0.2360 -0.9716
vn 0.6250 0.2051 -0.7532
vn 0.3203 0.2663 -0.9091
vn 0.9269 -0.3751 -0.0101
vn 0.1882 -0.9053 0.3808
vn -0.7591 -0.2943 -0.5807
vn -0.0202 0.2359 -0.9716
vn 0.3204 0.2662 -0.9091
vn 0.6249 0.2051 -0.7533
vn 0.8472 0.0617 -0.5277
vn 0.6794 0.7311 0.0630
vn -0.9269 0.3751 0.0101
vn -0.6249 -0.2051 0.7532
vn -0.3203 -0.2662 0.9091
vn 0.0202 -0.2359 0.9716
vn 0.7591 0.2944 0.5806
vn 0.3450 -0.1188 0.9310
vn -0.6045 -0.0674 -0.7938
vn 0.5129 -0.7881 0.3403
vn -0.4572 -0.8744 0.1625
vn -0.6793 -0.7311 -0.0631
vn -0.7854 -0.5274 -0.3241
vn -0.7591 -0.2944 -0.5806
vn -0.0203 0.2359 -0.9716
vn 0.6250 0.2050 -0.7532
vt 0.597645 0.048122
vt 0.832032 0.048122
vt 0.832032 0.207771
vt 0.597645 0.207771
vt 0.597645 0.363770
vt 0.597645 0.028639
vt 0.832033 0.028639
vt 0.832033 0.363770
vt 0.836497 0.207771
vt 0.602109 0.207771
vt 0.602109 0.048122
vt 0.836497 0.048122
vt 0.832033 0.026510
vt 0.832033 0.361641
vt 0.597645 0.361641
vt 0.597645 0.026510
vt 0.600667 0.042381
vt 0.835055 0.042381
vt 0.835055 0.202029
vt 0.600667 0.202029
vt 0.838077 0.202029
vt 0.603690 0.202029
vt 0.603690 0.042381
vt 0.838077 0.042381
vt 0.447007 0.351259
vt 0.443388 0.491900
vt 0.439769 0.351259
vt 0.447007 0.332842
vt 0.454244 0.332842
vt 0.454244 0.351259
vt 0.436151 0.491900
vt 0.432532 0.351259
vt 0.439769 0.332842
vt 0.428913 0.491900
vt 0.425294 0.351259
vt 0.432532 0.332842
vt 0.421676 0.491900
vt 0.418057 0.351259
vt 0.425294 0.332842
vt 0.414438 0.491900
vt 0.410819 0.351259
vt 0.418057 0.332842
vt 0.407201 0.491900
vt 0.403582 0.351259
vt 0.410819 0.332842
vt 0.399963 0.491900
vt 0.396344 0.351259
vt 0.403582 0.332842
vt 0.392726 0.491900
vt 0.389107 0.351259
vt 0.396344 0.332842
vt 0.385488 0.491900
vt 0.381869 0.351259
vt 0.389107 0.332842
vt 0.378251 0.491900
vt 0.374632 0.351259
vt 0.381869 0.332842
vt 0.371013 0.491900
vt 0.367395 0.351259
vt 0.374632 0.332842
vt 0.363776 0.491900
vt 0.360157 0.351259
vt 0.367395 0.332842
vt 0.475957 0.351259
vt 0.472338 0.491900
vt 0.468719 0.351259
vt 0.360157 0.332842
vt 0.465101 0.491900
vt 0.461482 0.351259
vt 0.468719 0.332842
vt 0.475957 0.332842
vt 0.457863 0.491900
vt 0.461482 0.332842
vt 0.450626 0.491900
vt 0.447007 0.349793
vt 0.450626 0.477213
vt 0.454244 0.349793
vt 0.439769 0.349793
vt 0.443388 0.477213
vt 0.432532 0.349793
vt 0.436151 0.477213
vt 0.425294 0.349793
vt 0.428913 0.477213
vt 0.418057 0.349793
vt 0.421676 0.477213
vt 0.410819 0.349793
vt 0.414438 0.477213
vt 0.403582 0.349793
vt 0.407201 0.477213
vt 0.396344 0.349793
vt 0.399963 0.477213
vt 0.389107 0.349793
vt 0.392726 0.477213
vt 0.381869 0.349793
vt 0.385488 0.477213
vt 0.374632 0.349793
vt 0.378251 0.477213
vt 0.367395 0.349793
vt 0.371013 0.477213
vt 0.360157 0.349793
vt 0.363776 0.477213
vt 0.475957 0.349793
vt 0.468719 0.349793
vt 0.472338 0.477213
vt 0.461482 0.349793
vt 0.465101 0.477213
vt 0.457863 0.477213
vt 0.996031 0.781568
vt 0.929455 0.781568
vt 0.923477 0.739685
vt 0.984985 0.704178
vt 0.993440 0.781568
vt 0.982592 0.857576
vt 0.984985 0.858957
vt 0.923477 0.823451
vt 0.951698 0.922012
vt 0.953530 0.924565
vt 0.906453 0.858957
vt 0.905462 0.965067
vt 0.906453 0.968402
vt 0.880976 0.882682
vt 0.850923 0.980186
vt 0.850923 0.983796
vt 0.850923 0.891013
vt 0.796384 0.965067
vt 0.795393 0.968402
vt 0.820870 0.882682
vt 0.750148 0.922012
vt 0.748316 0.924565
vt 0.795393 0.858957
vt 0.719254 0.857576
vt 0.716861 0.858957
vt 0.778369 0.823451
vt 0.708406 0.781568
vt 0.705815 0.781568
vt 0.772391 0.781568
vt 0.719254 0.705560
vt 0.716861 0.704178
vt 0.778369 0.739685
vt 0.750148 0.641123
vt 0.748316 0.638571
vt 0.795393 0.704178
vt 0.796384 0.598068
vt 0.795393 0.594733
vt 0.820870 0.680454
vt 0.850923 0.582949
vt 0.850923 0.579339
vt 0.850923 0.672123
vt 0.905462 0.598068
vt 0.906453 0.594733
vt 0.880976 0.680454
vt 0.951698 0.641123
vt 0.953530 0.638571
vt 0.906453 0.704178
vt 0.982592 0.705560
vt 0.850923 0.781568
vt 0.927582 0.781568
vt 0.921746 0.822452
vt 0.905129 0.857111
vt 0.880259 0.880270
vt 0.850923 0.888403
vt 0.821587 0.880270
vt 0.796717 0.857111
vt 0.780100 0.822452
vt 0.774264 0.781568
vt 0.780100 0.740684
vt 0.796717 0.706024
vt 0.821587 0.682865
vt 0.850923 0.674733
vt 0.880259 0.682865
vt 0.905129 0.706024
vt 0.921746 0.740684
vt 0.537479 0.089701
vt 0.826006 0.089701
vt 0.826006 0.211704
vt 0.537479 0.211704
vt 0.537479 0.469269
vt 0.537479 0.029223
vt 0.826006 0.029223
vt 0.826006 0.469269
vt 0.830941 0.216831
vt 0.542414 0.216831
vt 0.542414 0.094827
vt 0.830941 0.094827
vt 0.835348 0.030094
vt 0.835348 0.470141
vt 0.546821 0.470141
vt 0.546821 0.030094
vt 0.531149 0.089701
vt 0.819676 0.089701
vt 0.819676 0.211704
vt 0.531149 0.211704
vt 0.822689 0.211704
vt 0.534162 0.211704
vt 0.534162 0.089701
vt 0.822689 0.089701
vt 0.975466 0.237113
vt 0.975466 0.219078
vt 0.975466 0.203789
vt 0.975466 0.193573
vt 0.975466 0.189985
vt 0.975466 0.255149
vt 0.975466 0.270438
vt 0.975466 0.280654
vt 0.975466 0.284242
vt 0.882237 0.237113
vt 0.882237 0.219078
vt 0.882237 0.255149
vt 0.882237 0.270438
vt 0.882237 0.280654
vt 0.882237 0.284242
vt 0.882237 0.203789
vt 0.882237 0.193573
vt 0.882237 0.189985
vt 0.891694 0.427099
vt 0.895441 0.427099
vt 0.899188 0.427099
vt 0.902935 0.427099
vt 0.906682 0.427099
vt 0.910429 0.427099
vt 0.914176 0.427099
vt 0.917923 0.427099
vt 0.921670 0.427099
vt 0.925417 0.427099
vt 0.929164 0.427099
vt 0.932911 0.427099
vt 0.936658 0.427099
vt 0.940405 0.427099
vt 0.884200 0.427099
vt 0.887947 0.427099
vt 0.951646 0.427099
vt 0.951646 0.332842
vt 0.955393 0.332842
vt 0.955393 0.427099
vt 0.947899 0.427099
vt 0.947899 0.332842
vt 0.944152 0.427099
vt 0.944152 0.332842
vt 0.940405 0.332842
vt 0.936658 0.332842
vt 0.932911 0.332842
vt 0.929164 0.332842
vt 0.925417 0.332842
vt 0.921670 0.332842
vt 0.917923 0.332842
vt 0.914176 0.332842
vt 0.910429 0.332842
vt 0.906682 0.332842
vt 0.962887 0.427099
vt 0.962887 0.332842
vt 0.966634 0.332842
vt 0.966634 0.427099
vt 0.959140 0.427099
vt 0.959140 0.332842
vt 0.887947 0.332842
vt 0.884200 0.332842
vt 0.902935 0.332842
vt 0.899188 0.332842
vt 0.895441 0.332842
vt 0.891694 0.332842
s 0
usemtl default2
f 1/1/1 4/2/2 3/3/3 2/4/4
f 1/5/5 5/6/6 8/7/7 4/8/8
f 2/9/9 6/10/10 5/11/6 1/12/1
f 3/13/11 7/14/12 6/15/13 2/16/14
f 4/17/15 8/18/16 7/19/17 3/20/18
f 6/21/19 7/22/20 8/23/21 5/24/22
f 9/25/23 25/26/24 10/27/25
f 9/25/26 26/28/27 41/29/28 24/30/29
f 10/27/25 25/31/30 11/32/31
f 10/27/25 27/33/32 26/28/27 9/25/26
f 11/32/31 25/34/30 12/35/33
f 11/32/34 28/36/35 27/33/32 10/27/25
f 12/35/33 25/37/36 13/38/37
f 12/35/38 29/39/39 28/36/35 11/32/40
f 13/38/37 25/40/36 14/41/41
f 13/38/37 30/42/42 29/39/39 12/35/38
f 14/41/41 25/43/43 15/44/44
f 14/41/45 31/45/46 30/42/42 13/38/37
f 15/44/44 25/46/47 16/47/48
f 15/44/44 32/48/49 31/45/46 14/41/45
f 16/47/48 25/49/47 17/50/50
f 16/47/51 33/51/52 32/48/49 15/44/44
f 17/50/50 25/52/30 18/53/53
f 17/50/54 34/54/55 33/51/52 16/47/51
f 18/53/56 25/55/24 19/56/57
f 18/53/53 35/57/58 34/54/55 17/50/54
f 19/56/59 25/58/60 20/59/61
f 19/56/57 36/60/62 35/57/58 18/53/53
f 20/59/61 25/61/63 21/62/64
f 20/59/65 37/63/66 36/60/62 19/56/57
f 21/64/64 25/65/63 22/66/67
f 21/62/64 38/67/68 37/63/66 20/59/65
f 22/66/67 25/68/69 23/69/70
f 22/66/67 39/70/71 38/71/68 21/64/64
f 23/69/70 25/72/43 24/30/72
f 23/69/70 40/73/73 39/70/71 22/66/74
f 24/30/72 25/74/43 9/25/23
f 24/30/29 41/29/28 40/73/73 23/69/70
f 26/28/75 59/28/76 74/29/52 41/29/28
f 27/33/77 60/33/78 59/28/79 26/28/27
f 28/36/35 61/36/80 60/33/81 27/33/32
f 29/39/82 62/39/66 61/36/62 28/36/35
f 30/42/42 63/42/68 62/39/66 29/39/83
f 31/45/46 64/45/84 63/42/85 30/42/42
f 32/48/49 65/48/86 64/45/87 31/45/46
f 33/51/52 66/51/88 65/48/89 32/48/49
f 34/54/90 67/54/91 66/51/28 33/51/52
f 35/57/58 68/57/77 67/54/92 34/54/90
f 36/60/80 69/60/35 68/57/32 35/57/58
f 37/63/66 70/63/93 69/60/94 36/60/62
f 38/67/68 71/67/42 70/63/82 37/63/66
f 39/70/84 72/70/46 71/71/95 38/71/85
f 40/73/89 73/73/49 72/70/46 39/70/87
f 41/29/96 74/29/97 73/73/49 40/73/89
f 42/75/98 58/76/99 57/77/100
f 42/75/101 59/28/55 60/33/78 43/78/102
f 43/78/102 58/79/99 42/75/98
f 43/78/102 60/33/103 61/36/80 44/80/104
f 44/80/104 58/81/99 43/78/102
f 44/80/104 61/36/62 62/39/66 45/82/105
f 45/82/106 58/83/99 44/80/107
f 45/82/105 62/39/66 63/42/68 46/84/108
f 46/84/108 58/85/99 45/82/106
f 46/84/108 63/42/85 64/45/84 47/86/109
f 47/86/110 58/87/99 46/84/108
f 47/86/109 64/45/87 65/48/73 48/88/111
f 48/88/111 58/89/99 47/86/110
f 48/88/111 65/48/89 66/51/96 49/90/112
f 49/90/113 58/91/99 48/88/111
f 49/90/112 66/51/28 67/54/27 50/92/114
f 50/92/115 58/93/99 49/90/113
f 50/92/114 67/54/27 68/57/77 51/94/116
f 51/94/116 58/95/99 50/92/115
f 51/94/116 68/57/32 69/60/35 52/96/117
f 52/96/117 58/97/99 51/94/118
f 52/96/117 69/60/35 70/63/93 53/98/119
f 53/98/119 58/99/99 52/96/120
f 53/98/119 70/63/83 71/67/42 54/100/121
f 54/100/121 58/101/99 53/98/119
f 54/102/121 71/71/42 72/70/46 55/103/122
f 55/103/122 58/104/99 54/102/121
f 55/103/122 72/70/46 73/73/49 56/105/123
f 56/105/123 58/106/99 55/103/122
f 56/105/123 73/73/49 74/29/52 57/77/100
f 57/77/124 58/107/99 56/105/123
f 57/77/125 74/29/52 59/28/90 42/75/101
f 75/108/126 91/109/127 106/110/128 90/111/129
f 75/108/126 108/112/130 109/113/131 76/114/132
f 76/114/132 92/115/133 91/109/127 75/108/134
f 76/114/132 109/113/135 110/116/136 77/117/137
f 77/117/137 93/118/138 92/115/139 76/114/132
f 77/117/140 110/116/141 111/119/142 78/120/143
f 78/120/144 94/121/145 93/118/138 77/117/137
f 78/120/143 111/119/142 112/122/146 79/123/147
f 79/123/147 95/124/148 94/121/149 78/120/143
f 79/123/150 112/122/146 113/125/151 80/126/152
f 80/126/152 96/127/153 95/124/154 79/123/147
f 80/126/155 113/125/151 114/128/156 81/129/157
f 81/129/158 97/130/159 96/127/153 80/126/152
f 81/129/160 114/128/161 115/131/162 82/132/163
f 82/132/163 98/133/164 97/130/159 81/129/158
f 82/132/165 115/131/162 116/134/166 83/135/167
f 83/135/167 99/136/168 98/133/164 82/132/163
f 83/135/167 116/134/166 117/137/169 84/138/170
f 84/138/171 100/139/172 99/136/168 83/135/167
f 84/138/171 117/137/169 118/140/173 85/141/174
f 85/141/175 101/142/176 100/139/172 84/138/171
f 85/141/175 118/140/173 119/143/177 86/144/178
f 86/144/179 102/145/180 101/142/176 85/141/181
f 86/144/179 119/143/182 120/146/183 87/147/184
f 87/147/185 103/148/186 102/145/180 86/144/179
f 87/147/185 120/146/187 121/149/188 88/150/189
f 88/150/189 104/151/190 103/148/186 87/147/185
f 88/150/189 121/149/188 122/152/191 89/153/192
f 89/153/192 105/154/193 104/151/190 88/150/189
f 89/153/192 122/152/191 123/155/194 90/111/129
f 90/111/129 106/110/128 105/154/193 89/153/192
f 90/111/195 123/155/196 108/112/197 75/108/134
f 91/109/127 107/156/99 106/110/128
f 92/115/133 107/156/99 91/109/127
f 93/118/138 107/156/99 92/115/139
f 94/121/145 107/156/99 93/118/138
f 95/124/148 107/156/99 94/121/149
f 96/127/153 107/156/99 95/124/154
f 97/130/159 107/156/99 96/127/153
f 98/133/164 107/156/99 97/130/198
f 99/136/168 107/156/99 98/133/164
f 100/139/172 107/156/99 99/136/168
f 101/142/199 107/156/99 100/139/172
f 102/145/200 107/156/99 101/142/176
f 103/148/186 107/156/99 102/145/180
f 104/151/190 107/156/99 103/148/186
f 105/154/193 107/156/99 104/151/190
f 106/110/128 107/156/99 105/154/193
f 108/112/201 124/157/202 125/158/203 109/113/204
f 109/113/135 125/158/203 126/159/205 110/116/136
f 110/116/141 126/159/205 127/160/206 111/119/142
f 111/119/142 127/160/207 128/161/208 112/122/146
f 112/122/209 128/161/210 129/162/211 113/125/151
f 113/125/212 129/162/211 130/163/213 114/128/214
f 114/128/215 130/163/216 131/164/217 115/131/218
f 115/131/219 131/164/217 132/165/220 116/134/166
f 116/134/166 132/165/220 133/166/221 117/137/222
f 117/137/223 133/166/221 134/167/224 118/140/225
f 118/140/226 134/167/227 135/168/228 119/143/229
f 119/143/230 135/168/231 136/169/232 120/146/233
f 120/146/234 136/169/232 137/170/235 121/149/236
f 121/149/237 137/170/235 138/171/238 122/152/191
f 122/152/239 138/171/238 139/172/240 123/155/241
f 123/155/196 139/172/240 124/157/202 108/112/242
f 124/157/202 140/156/243 125/158/203
f 125/158/203 140/156/243 126/159/205
f 126/159/205 140/156/243 127/160/206
f 127/160/206 140/156/243 128/161/210
f 128/161/210 140/156/243 129/162/211
f 129/162/211 140/156/243 130/163/216
f 130/163/216 140/156/243 131/164/217
f 131/164/217 140/156/243 132/165/220
f 132/165/220 140/156/243 133/166/221
f 133/166/221 140/156/243 134/167/224
f 134/167/224 140/156/243 135/168/228
f 135/168/228 140/156/243 136/169/232
f 136/169/232 140/156/243 137/170/235
f 137/170/235 140/156/243 138/171/238
f 138/171/238 140/156/243 139/172/240
f 139/172/240 140/156/243 124/157/202
f 141/173/1 144/174/2 143/175/3 142/176/4
f 141/177/5 145/178/244 148/179/7 144/180/15
f 142/181/9 146/182/10 145/183/6 141/184/1
f 143/185/11 147/186/17 146/187/13 142/188/14
f 144/189/2 148/190/16 147/191/17 143/192/18
f 146/193/19 147/194/20 148/195/245 145/196/22
f 149/197/246 164/198/247 163/199/248 162/200/249 161/201/250 160/200/251 159/199/252 158/198/253 157/197/254 156/202/255 155/203/256 154/204/257 153/205/258 152/204/259 151/203/260 150/202/261
f 149/197/246 165/206/262 180/207/263 164/198/264
f 150/202/265 166/208/266 165/206/262 149/197/246
f 151/203/267 167/209/268 166/208/266 150/202/265
f 152/204/269 168/210/270 167/209/268 151/203/271
f 153/205/272 169/211/273 168/210/274 152/204/269
f 154/204/275 170/210/276 169/211/273 153/205/277
f 155/203/278 171/209/279 170/210/276 154/204/280
f 156/202/281 172/208/282 171/209/279 155/203/278
f 157/197/283 173/206/284 172/208/282 156/202/281
f 158/198/253 174/207/285 173/206/284 157/197/283
f 159/199/286 175/212/287 174/207/285 158/198/253
f 160/200/288 176/213/289 175/212/290 159/199/286
f 161/201/291 177/214/292 176/213/289 160/200/293
f 162/200/249 178/213/294 177/214/295 161/201/291
f 163/199/248 179/212/296 178/213/297 162/200/249
f 164/198/264 180/207/263 179/212/296 163/199/248
f 166/208/298 167/209/268 168/210/270 169/211/299 170/210/276 171/209/279 172/208/282 173/206/284 174/207/300 175/212/287 176/213/289 177/214/301 178/213/302 179/212/303 180/207/304 165/206/262
f 181/215/246 196/216/305 195/217/248 194/218/249 193/219/250 192/220/288 191/221/286 190/222/306 189/223/254 188/224/255 187/225/307 186/226/308 185/227/309 184/228/259 183/229/260 182/230/310
f 181/231/246 197/232/262 212/233/263 196/234/264
f 182/235/265 198/236/266 197/232/262 181/231/246
f 183/237/267 199/238/268 198/236/266 182/235/265
f 184/228/269 200/239/270 199/238/268 183/237/271
f 185/227/272 201/240/273 200/239/274 184/228/311
f 186/226/275 202/241/276 201/240/273 185/227/277
f 187/225/278 203/242/279 202/241/276 186/226/280
f 188/224/281 204/243/282 203/242/279 187/225/278
f 189/223/283 205/244/284 204/243/282 188/224/281
f 190/222/253 206/245/285 205/244/284 189/223/283
f 191/221/286 207/246/287 206/245/285 190/222/253
f 192/220/288 208/247/289 207/246/312 191/221/286
f 193/219/291 209/248/292 208/247/289 192/220/293
f 194/249/249 210/250/294 209/251/295 193/252/291
f 195/253/248 211/254/296 210/250/297 194/249/249
f 196/234/264 212/233/263 211/254/296 195/253/248
f 198/255/298 199/256/268 200/239/313 201/240/299 202/241/276 203/242/314 204/243/315 205/244/316 206/245/317 207/246/290 208/247/289 209/248/318 210/257/302 211/258/319 212/259/304 197/260/262
