# Blender 3.6.4
# www.blender.org
mtllib Satellite_Wing.mtl
o satellite_sep4.001
v 0.298557 0.119879 -0.383075
v 0.294124 0.137555 -0.367476
v 0.937899 0.280255 -0.346237
v 0.942332 0.262580 -0.361835
v 0.277032 0.237782 -0.522792
v 0.272599 0.255457 -0.507194
v 0.916374 0.398158 -0.485954
v 0.920807 0.380482 -0.501553
v 0.952042 0.328710 -0.428790
v 0.952310 0.327063 -0.425827
v 0.952291 0.326644 -0.422452
v 0.951990 0.327518 -0.419179
v 0.951451 0.329550 -0.416506
v 0.950757 0.332433 -0.414841
v 0.950014 0.335727 -0.414436
v 0.949334 0.338930 -0.415354
v 0.948821 0.341556 -0.417454
v 0.948554 0.343203 -0.420417
v 0.948572 0.343622 -0.423792
v 0.948874 0.342748 -0.427065
v 0.949413 0.340716 -0.429737
v 0.950107 0.337833 -0.431403
v 0.950850 0.334539 -0.431807
v 0.951530 0.331336 -0.430890
v 0.948590 0.322198 -0.433754
v 0.949084 0.319154 -0.428279
v 0.949050 0.318380 -0.422043
v 0.948493 0.319994 -0.415995
v 0.947497 0.323750 -0.411057
v 0.946215 0.329076 -0.407980
v 0.944841 0.335163 -0.407232
v 0.943585 0.341082 -0.408927
v 0.942638 0.345932 -0.412808
v 0.942144 0.348977 -0.418283
v 0.942178 0.349751 -0.424519
v 0.942735 0.348137 -0.430566
v 0.943731 0.344380 -0.435505
v 0.945013 0.339054 -0.438582
v 0.946387 0.332968 -0.439330
v 0.947643 0.327049 -0.437634
v 0.942292 0.316961 -0.437202
v 0.942938 0.312984 -0.430049
v 0.942893 0.311973 -0.421901
v 0.942165 0.314082 -0.414000
v 0.940864 0.318989 -0.407547
v 0.939189 0.325949 -0.403527
v 0.937394 0.333901 -0.402550
v 0.935753 0.341634 -0.404765
v 0.934515 0.347972 -0.409835
v 0.933870 0.351950 -0.416989
v 0.933914 0.352961 -0.425136
v 0.934642 0.350852 -0.433038
v 0.935943 0.345944 -0.439490
v 0.937619 0.338985 -0.443511
v 0.939413 0.331033 -0.444488
v 0.941055 0.323299 -0.442272
v 0.934108 0.313799 -0.438610
v 0.934806 0.309494 -0.430867
v 0.934758 0.308399 -0.422048
v 0.933970 0.310681 -0.413496
v 0.932562 0.315994 -0.406512
v 0.930749 0.323527 -0.402160
v 0.928806 0.332134 -0.401102
v 0.927029 0.340504 -0.403500
v 0.925690 0.347365 -0.408988
v 0.924991 0.351670 -0.416731
v 0.925039 0.352764 -0.425550
v 0.925828 0.350482 -0.434102
v 0.927235 0.345170 -0.441086
v 0.929049 0.337637 -0.445438
v 0.930992 0.329030 -0.446496
v 0.932768 0.320659 -0.444098
v 0.952123 0.335508 -0.423066
vn -0.3891 -0.9201 0.0442
vn 0.7375 -0.6704 0.0813
vn 0.5242 0.1805 0.8322
vn -0.6026 -0.0693 0.7950
vn -0.3892 -0.9201 0.0441
vn -0.5242 -0.1805 -0.8323
vn 0.6026 0.0692 -0.7950
vn 0.7375 -0.6704 0.0814
vn -0.6026 -0.0692 0.7951
vn -0.7376 0.6703 -0.0814
vn -0.5242 -0.1806 -0.8322
vn 0.5242 0.1806 0.8322
vn 0.3891 0.9201 -0.0442
vn -0.7376 0.6703 -0.0813
vn -0.6025 -0.0693 0.7951
vn 0.7376 -0.6704 0.0813
vn 0.6025 0.0693 -0.7951
vn 0.3892 0.9201 -0.0441
vn 0.6026 0.0693 -0.7950
vn 0.9723 -0.0817 -0.2188
vn 0.8211 -0.3676 -0.4367
vn 0.7795 -0.1548 -0.6070
vn 0.9499 0.0334 -0.3109
vn 0.9723 -0.0818 -0.2188
vn 0.9758 0.2163 0.0322
vn 0.9841 -0.1540 -0.0888
vn 0.8428 -0.5012 -0.1965
vn 0.9833 -0.1724 0.0591
vn 0.8412 -0.5351 0.0771
vn 0.8427 -0.5012 -0.1965
vn 0.9841 -0.1540 -0.0889
vn 0.9833 -0.1723 0.0591
vn 0.9700 -0.1340 0.2026
vn 0.9700 -0.1341 0.2027
vn 0.8168 -0.4643 0.3424
vn 0.9464 -0.0449 0.3198
vn 0.7731 -0.2995 0.5591
vn 0.9160 0.0815 0.3929
vn 0.7169 -0.0658 0.6941
vn 0.8834 0.2259 0.4106
vn 0.6566 0.2012 0.7269
vn 0.8536 0.3664 0.3704
vn 0.6015 0.4609 0.6525
vn 0.8311 0.4815 0.2783
vn 0.5599 0.6737 0.4823
vn 0.8194 0.5538 0.1484
vn 0.8194 0.5538 0.1483
vn 0.5382 0.8073 0.2421
vn 0.8194 0.5537 0.1484
vn 0.8202 0.5721 0.0004
vn 0.5397 0.8412 -0.0315
vn 0.5383 0.8073 0.2421
vn 0.8334 0.5338 -0.1432
vn 0.5642 0.7704 -0.2969
vn 0.8570 0.4447 -0.2603
vn 0.6079 0.6056 -0.5135
vn 0.8334 0.5338 -0.1431
vn 0.8570 0.4447 -0.2604
vn 0.8875 0.3183 -0.3334
vn 0.6641 0.3719 -0.6485
vn 0.8874 0.3183 -0.3334
vn 0.9201 0.1738 -0.3511
vn 0.7244 0.1049 -0.6814
vn 0.7244 0.1049 -0.6813
vn 0.5446 -0.5978 -0.5883
vn 0.4903 -0.3195 -0.8109
vn 0.8428 -0.5011 -0.1965
vn 0.5729 -0.7723 -0.2743
vn 0.8413 -0.5351 0.0771
vn 0.5710 -0.8167 0.0834
vn 0.5390 -0.7242 0.4302
vn 0.5710 -0.8167 0.0833
vn 0.4819 -0.5087 0.7134
vn 0.4084 -0.2032 0.8899
vn 0.3296 0.1458 0.9328
vn 0.2575 0.4853 0.8356
vn 0.2032 0.7635 0.6130
vn 0.1749 0.9381 0.2990
vn 0.5398 0.8412 -0.0315
vn 0.1768 0.9825 -0.0587
vn 0.5383 0.8073 0.2420
vn 0.5642 0.7704 -0.2968
vn 0.2088 0.8899 -0.4055
vn 0.2659 0.6745 -0.6887
vn 0.3394 0.3690 -0.8652
vn 0.4182 0.0199 -0.9081
vn -0.1218 -0.7677 -0.6291
vn -0.1779 -0.4809 -0.8586
vn -0.0926 -0.9477 -0.3053
vn -0.0947 -0.9935 0.0634
vn -0.0926 -0.9477 -0.3054
vn -0.1276 -0.8981 0.4210
vn -0.0946 -0.9935 0.0634
vn -0.1865 -0.6759 0.7130
vn -0.1276 -0.8981 0.4209
vn -0.2623 -0.3610 0.8949
vn -0.1865 -0.6760 0.7130
vn -0.3435 -0.0011 0.9391
vn -0.4178 0.3489 0.8389
vn -0.4738 0.6357 0.6094
vn -0.5030 0.8157 0.2857
vn -0.5010 0.8615 -0.0830
vn -0.4680 0.7660 -0.4406
vn -0.4092 0.5439 -0.7326
vn -0.3334 0.2289 -0.9146
vn -0.2521 -0.1309 -0.9588
vn -0.3334 0.2290 -0.9146
vn -0.1779 -0.4809 -0.8585
vn -0.1865 -0.6760 0.7129
vn -0.3435 -0.0012 0.9391
vn -0.4178 0.3488 0.8389
vn -0.4738 0.6357 0.6095
vn -0.3333 0.2289 -0.9146
vn -0.2521 -0.1310 -0.9588
vn -0.1218 -0.7678 -0.6290
vt 0.349948 0.093955
vt 0.486375 0.093955
vt 0.486375 0.129413
vt 0.349948 0.129413
vt 0.020388 0.288034
vt 0.020388 0.040390
vt 0.310329 0.040390
vt 0.310329 0.288034
vt 0.388409 0.132007
vt 0.350343 0.132007
vt 0.350343 0.096549
vt 0.388409 0.096549
vt 0.348778 0.093955
vt 0.386843 0.093955
vt 0.386843 0.129413
vt 0.348778 0.129413
vt 0.486752 0.132007
vt 0.350325 0.132007
vt 0.350325 0.096549
vt 0.486752 0.096549
vt 0.198942 0.933464
vt 0.198942 0.889864
vt 0.226405 0.889864
vt 0.226405 0.933464
vt 0.185210 0.991520
vt 0.171478 0.933464
vt 0.171478 0.889864
vt 0.157747 0.991520
vt 0.144015 0.933464
vt 0.583430 0.933464
vt 0.583430 0.889864
vt 0.610894 0.889864
vt 0.610894 0.933464
vt 0.130283 0.991520
vt 0.116551 0.933464
vt 0.555967 0.933464
vt 0.555967 0.889864
vt 0.102820 0.991520
vt 0.089088 0.933464
vt 0.528503 0.933464
vt 0.528503 0.889864
vt 0.075356 0.991520
vt 0.061625 0.933464
vt 0.501040 0.933464
vt 0.501040 0.889864
vt 0.047893 0.991520
vt 0.034161 0.933464
vt 0.473577 0.933464
vt 0.473577 0.889864
vt 0.240137 0.991520
vt 0.446113 0.933464
vt 0.446113 0.889864
vt 0.432381 0.991520
vt 0.418650 0.933464
vt 0.418650 0.889864
vt 0.404918 0.991520
vt 0.391186 0.933464
vt 0.391186 0.889864
vt 0.377454 0.991520
vt 0.363723 0.933464
vt 0.363723 0.889864
vt 0.349991 0.991520
vt 0.336259 0.933464
vt 0.336259 0.889864
vt 0.322527 0.991520
vt 0.308796 0.933464
vt 0.308796 0.889864
vt 0.295064 0.991520
vt 0.281332 0.933464
vt 0.281332 0.889864
vt 0.267600 0.991520
vt 0.253869 0.933464
vt 0.253869 0.889864
vt 0.240137 0.991520
vt 0.212674 0.991520
vt 0.198942 0.857353
vt 0.226405 0.857353
vt 0.171478 0.857353
vt 0.583430 0.857353
vt 0.610894 0.857353
vt 0.555967 0.857353
vt 0.528503 0.857353
vt 0.501040 0.857353
vt 0.473577 0.857353
vt 0.446113 0.857353
vt 0.418650 0.857353
vt 0.391186 0.857353
vt 0.363723 0.857353
vt 0.336259 0.857353
vt 0.308796 0.857353
vt 0.281332 0.857353
vt 0.253869 0.857353
vt 0.198942 0.830684
vt 0.226405 0.830684
vt 0.171478 0.830684
vt 0.583430 0.830684
vt 0.610894 0.830684
vt 0.555967 0.830684
vt 0.528503 0.830684
vt 0.501040 0.830684
vt 0.473577 0.830684
vt 0.446113 0.830684
vt 0.418650 0.830684
vt 0.391186 0.830684
vt 0.363723 0.830684
vt 0.336259 0.830684
vt 0.308796 0.830684
vt 0.281332 0.830684
vt 0.253869 0.830684
vt 0.144015 0.830684
vt 0.116551 0.830684
vt 0.089088 0.830684
vt 0.061625 0.830684
vt 0.034161 0.830684
s 0
usemtl default2
f 1/1/1 4/2/2 3/3/3 2/4/4
f 1/5/5 5/6/6 8/7/7 4/8/8
f 2/9/9 6/10/10 5/11/11 1/12/5
f 3/8/12 7/7/13 6/6/14 2/5/15
f 4/13/16 8/14/17 7/15/18 3/16/12
f 6/17/10 7/18/13 8/19/19 5/20/6
f 9/21/20 25/22/21 40/23/22 24/24/23
f 9/21/24 73/25/25 10/26/26
f 10/26/26 26/27/27 25/22/21 9/21/20
f 10/26/26 73/28/25 11/29/28
f 11/30/28 27/31/29 26/32/30 10/33/31
f 11/29/32 73/34/25 12/35/33
f 12/36/34 28/37/35 27/31/29 11/30/28
f 12/35/33 73/38/25 13/39/36
f 13/40/36 29/41/37 28/37/35 12/36/34
f 13/39/36 73/42/25 14/43/38
f 14/44/38 30/45/39 29/41/37 13/40/36
f 14/43/38 73/46/25 15/47/40
f 15/48/40 31/49/41 30/45/39 14/44/38
f 15/47/40 73/50/25 16/51/42
f 16/51/42 32/52/43 31/49/41 15/48/40
f 16/51/42 73/53/25 17/54/44
f 17/54/44 33/55/45 32/52/43 16/51/42
f 17/54/44 73/56/25 18/57/46
f 18/57/47 34/58/48 33/55/45 17/54/44
f 18/57/49 73/59/25 19/60/50
f 19/60/50 35/61/51 34/58/52 18/57/49
f 19/60/50 73/62/25 20/63/53
f 20/63/53 36/64/54 35/61/51 19/60/50
f 20/63/53 73/65/25 21/66/55
f 21/66/55 37/67/56 36/64/54 20/63/57
f 21/66/58 73/68/25 22/69/59
f 22/69/59 38/70/60 37/67/56 21/66/55
f 22/69/61 73/71/25 23/72/62
f 23/72/62 39/73/63 38/70/60 22/69/59
f 23/72/62 73/74/25 24/24/23
f 24/24/23 40/23/22 39/73/64 23/72/62
f 24/24/23 73/75/25 9/21/24
f 25/22/21 41/76/65 56/77/66 40/23/22
f 26/27/67 42/78/68 41/76/65 25/22/21
f 27/31/69 43/79/70 42/80/68 26/32/27
f 28/37/35 44/81/71 43/79/72 27/31/69
f 29/41/37 45/82/73 44/81/71 28/37/35
f 30/45/39 46/83/74 45/82/73 29/41/37
f 31/49/41 47/84/75 46/83/74 30/45/39
f 32/52/43 48/85/76 47/84/75 31/49/41
f 33/55/45 49/86/77 48/85/76 32/52/43
f 34/58/52 50/87/78 49/86/77 33/55/45
f 35/61/79 51/88/80 50/87/78 34/58/81
f 36/64/82 52/89/83 51/88/80 35/61/79
f 37/67/56 53/90/84 52/89/83 36/64/54
f 38/70/60 54/91/85 53/90/84 37/67/56
f 39/73/64 55/92/86 54/91/85 38/70/60
f 40/23/22 56/77/66 55/92/86 39/73/64
f 41/76/65 57/93/87 72/94/88 56/77/66
f 42/78/68 58/95/89 57/93/87 41/76/65
f 43/79/72 59/96/90 58/97/91 42/80/68
f 44/81/71 60/98/92 59/96/93 43/79/72
f 45/82/73 61/99/94 60/98/95 44/81/71
f 46/83/74 62/100/96 61/99/97 45/82/73
f 47/84/75 63/101/98 62/100/96 46/83/74
f 48/85/76 64/102/99 63/101/98 47/84/75
f 49/86/77 65/103/100 64/102/99 48/85/76
f 50/87/78 66/104/101 65/103/100 49/86/77
f 51/88/80 67/105/102 66/104/101 50/87/78
f 52/89/83 68/106/103 67/105/102 51/88/80
f 53/90/84 69/107/104 68/106/103 52/89/83
f 54/91/85 70/108/105 69/107/104 53/90/84
f 55/92/86 71/109/106 70/108/107 54/91/85
f 56/77/66 72/94/108 71/109/106 55/92/86
f 58/95/89 59/110/90 60/111/95 61/112/109 62/113/96 63/114/110 64/102/111 65/103/112 66/104/101 67/105/102 68/106/103 69/107/104 70/108/113 71/109/114 72/94/108 57/93/115
